<svg fill="none" height="16" viewBox="0 0 16 16" width="16" xmlns="http://www.w3.org/2000/svg"><g fill="#212121"><path d="m7.99994 6c-1.10457 0-2 .89543-2 2s.89543 2 2 2 2-.89543 2-2-.89543-2-2-2zm-1 2c0-.55228.44771-1 1-1 .55228 0 1 .44772 1 1s-.44772 1-1 1c-.55229 0-1-.44772-1-1z"/><path d="m10.618 4.39833c-.385.06992-.75408-.1842-.8243-.56759l-.25973-1.41578c-.02581-.14069-.13436-.25195-.27485-.28171-.41094-.08704-.83227-.1313-1.25912-.1313-.42711 0-.8487.04432-1.25987.13146-.14053.02979-.24909.14111-.27484.28186l-.259 1.41553c-.00689.03764-.01687.07471-.02982.1108-.13171.36699-.53727.55818-.90585.42703l-1.35947-.484c-.13512-.04811-.28604-.01032-.38224.0957-.56886.62696-.99999 1.36675-1.26171 2.17269-.04415.13597-.00158.28503.10782.37751l1.10192.93153c.02932.02479.05658.05193.08149.08114.25334.29707.21685.74238-.0815.99463l-1.10191.93152c-.1094.09248-.15197.24154-.10782.3775.26172.80595.69285 1.54575 1.26171 2.17275.0962.106.24712.1438.38224.0957l1.35953-.4841c.03619-.0128.07342-.0228.11128-.0297.38505-.0699.75412.1842.82434.5676l.25899 1.4155c.02575.1408.13431.2521.27484.2819.41117.0871.83276.1314 1.25987.1314.42685 0 .84818-.0442 1.25912-.1313.14049-.0297.24904-.141.27485-.2817l.25971-1.4157c.00692-.0378.0169-.0748.02985-.1109.13171-.367.53727-.5582.90587-.4271l1.3594.4841c.1352.0481.2861.0103.3823-.0957.5689-.627 1-1.3668 1.2617-2.17275.0442-.13596.0016-.28502-.1078-.3775l-1.1019-.93153c-.0294-.02479-.0566-.05193-.0815-.08115-.2534-.29707-.2169-.74238.0815-.99462l1.1019-.93152c.1094-.09248.152-.24154.1078-.37751-.2617-.80594-.6928-1.54573-1.2617-2.17269-.0962-.10602-.2471-.14381-.3823-.0957l-1.3595.48402c-.0362.01287-.0734.02281-.1113.02968zm-6.61937.57893.93659.33344c.88495.31489 1.8635-.14255 2.18247-1.0313.03134-.08733.05555-.1773.07227-.26862l.17742-.96965c.20832-.02601.41946-.03918.63262-.03918.213 0 .42397.01315.63214.03912l.17797.9701c.17042.92963 1.06255 1.53886 1.98659 1.37108.091-.01653.1808-.04049.268-.07152l.9367-.33347c.255.33358.467.6975.6305 1.08338l-.7545.63776c-.7208.60947-.8099 1.68809-.1967 2.40715.0601.07054.126.13611.1968.19595l.7544.63774c-.1635.38586-.3755.74976-.6305 1.08336l-.9368-.3335c-.8849-.3149-1.86332.1426-2.18229 1.0314-.03135.0873-.05554.1773-.07227.2686l-.1779.9697c-.20817.026-.41914.0391-.63214.0391-.21316 0-.4243-.0131-.63262-.0392l-.17744-.9697c-.17029-.9298-1.06251-1.5392-1.98664-1.3714-.09103.0166-.1808.0405-.26802.0716l-.93665.3334c-.25506-.3336-.46702-.6975-.63049-1.08336l.75443-.63776c.72086-.60947.80997-1.68809.19676-2.40715-.06016-.07055-.12601-.13611-.19679-.19595l-.7544-.63774c.16347-.38588.37543-.7498.63049-1.08338z"/></g></svg>