<?xml version="1.0" encoding="UTF-8"?>
<svg id="Layer_2" data-name="Layer 2" xmlns="http://www.w3.org/2000/svg" viewBox="0 0 226.81 158.99">
  <defs>
    <style>
      .fill-none {
        fill: none;
      }
      .eye-fill {
        fill: #FFFFFF;
      }
    </style>
  </defs>
  <g id="Layer_1-2" data-name="Layer 1">
    <g>
      <path class="fill-none" d="m139.89,71.56c.8,2.57,1.23,5.3,1.23,8.14,0,15.08-12.23,27.31-27.31,27.31-2.8,0-5.5-.42-8.05-1.21l-13.54,13.58c6.47,3.6,13.91,5.65,21.83,5.65,24.85,0,45-20.15,45-45,0-7.98-2.09-15.47-5.73-21.97l-13.45,13.49Z"/>
      <path class="eye-fill" d="m69.07,80.03c0-24.85,20.15-45,45-45,.16,0,.31.01.47.01l21.07-20.89C79.97,3.27,26.29,36.17,0,79.74c8.05,12.64,19.31,25.34,32.84,36.31l36.23-35.92s0-.06,0-.1Z"/>
      <path class="eye-fill" d="m179.09,32.22l17.09-17.15L180.14,0l-.02.02-21.43,21.25-20.78,20.61-12.99,12.88-36.15,35.84-13.07,12.96-25.18,24.96-14.06,13.94,1.33,1.35,14.96,15.18,19.52-19.59c46.8,18.61,105.09,11.76,154.54-59.42-15.02-21.3-31.16-36.91-47.72-47.76Zm-65.03,92.81c-7.93,0-15.37-2.06-21.83-5.65l13.54-13.58c2.54.78,5.25,1.21,8.05,1.21,15.08,0,27.31-12.23,27.31-27.31,0-2.83-.43-5.57-1.23-8.14l13.45-13.49c3.64,6.5,5.73,13.99,5.73,21.97,0,24.85-20.15,45-45,45Z"/>
    </g>
  </g>
</svg>